<?xml version="1.0" encoding="UTF-8"?>
<svg id="Layer_2" data-name="Layer 2" xmlns="http://www.w3.org/2000/svg" viewBox="0 0 179.24 67.5">
  <defs>
    <style>
      .cls-1 {
        font-family: SpaceGrotesk-Medium, 'Space Grotesk';
        font-size: 60px;
        font-variation-settings: 'wght' 500;
        font-weight: 500;
      }

      .cls-1, .cls-2 {
        fill: #27272a;
      }

      .cls-3 {
        letter-spacing: -.06em;
      }

      .cls-4 {
        letter-spacing: -.06em;
      }

      .cls-5 {
        letter-spacing: -.05em;
      }
    </style>
  </defs>
  <g id="Layer_1-2" data-name="Layer 1">
    <text class="cls-1" transform="translate(0 51.06)"><tspan class="cls-5" x="0" y="0">l</tspan><tspan class="cls-4" x="12.66" y="0">o</tspan><tspan class="cls-3" x="45.78" y="0">f</tspan><tspan class="cls-5" x="68.64" y="0">ty</tspan></text>
    <path class="cls-2" d="M179.08,45.41l-3.04-5.28h.95c.41,0,.79-.22,1-.56.2-.36.2-.79,0-1.15l-4.52-7.81,2.28-.13c.44-.02.83-.3,1-.71.17-.41.1-.88-.2-1.2-1.59-1.77-3.09-3.63-4.47-5.55-2.52-3.5-4.72-7.28-6.53-11.24-.2-.43-.66-.7-1.14-.66-.48.04-.88.37-1.01.84-.62,2.33-1.42,4.6-2.38,6.8-.84-1.05-1.65-2.1-2.42-3.18-3.31-4.58-6.18-9.53-8.53-14.7-.26-.58-.87-.93-1.49-.87-.64.05-1.17.48-1.33,1.09-1.45,5.43-3.62,10.64-6.41,15.47-1.57,2.73-3.38,5.36-5.35,7.85-.36.46-.43,1.09-.16,1.62.25.49.77.81,1.33.81h.08l2.12-.12-5.19,9.01c-.28.46-.28,1.03,0,1.5.26.46.76.75,1.3.75h1.67l-3.98,6.89c-.26.47-.26,1.05,0,1.5.28.47.77.76,1.3.76h11.03v6.12c0,.66.53,1.2,1.2,1.2h7.62c.67,0,1.2-.54,1.2-1.2v-6.12h6.09v6.12c0,.66.54,1.2,1.2,1.2h6.71c.66,0,1.2-.54,1.2-1.2v-6.12h7.87c.41,0,.78-.22.99-.58.2-.36.2-.79,0-1.14ZM175.01,37.84h-19.01l1.66-2.86,2.08-3.61.6-.04h.05l2.74-.14.56-.04,4.37-.25,2.57-.14h.28s4.1,7.08,4.1,7.08ZM162.64,20.74c.81-1.73,1.5-3.51,2.12-5.34.49.97,1.01,1.94,1.55,2.87.07.07.13.16.19.25l1.19,2.06c.79,1.29,1.63,2.55,2.52,3.77.97,1.35,2.01,2.67,3.08,3.95l-1.11.07-2.56.14h-.28s-2.57.16-2.57.16l-2.28.13-2.09.12-.65.04-.65.04-2.04.12-.7.04-.64.04c.25-.36.5-.72.76-1.08.7-1.05,1.37-2.12,2.01-3.2.78-1.36,1.5-2.75,2.15-4.18ZM143.44,18.07c2.27-3.94,4.15-8.11,5.59-12.45.65,1.27,1.32,2.52,2.03,3.76.1.1.18.19.25.31l1.55,2.7c1.05,1.68,2.15,3.33,3.31,4.93,1.09,1.51,2.22,3,3.43,4.45.2.25.41.5.61.75l-1.03.05-.42.02-3.35.19-.36.02-3.37.19-2.99.17-3.58.2-.84.05-3.58.19-.85.05c1.3-1.8,2.51-3.68,3.62-5.59ZM142.46,26.52l.83-.05,3.59-.2,6.47-.36,3.37-.19.36-.02.11.19c-.84,1.35-1.78,2.64-2.76,3.88-.29.36-.34.84-.13,1.25.2.37.6.61,1.02.61h.06l1.62-.1-1.98,3.45h-17.44l4.89-8.46ZM153,44.13h-16.43l3.55-6.14h13.16l-.25.43c-.22.36-.22.79,0,1.15.19.35.58.56.99.56h1.29l-2.3,3.99ZM155.24,44.84l.41-.71,2.31-3.99h15.44l2.7,4.7h-20.86Z"/>
  </g>
</svg>